<mxfile host="app.diagrams.net" agent="Mozilla/5.0 (Windows NT 10.0; Win64; x64) AppleWebKit/537.36 (KHTML, like Gecko) Chrome/133.0.0.0 Safari/537.36" version="26.0.16">
  <diagram name="Страница — 1" id="Smj_gIThxJ_iHa_x96WJ">
    <mxGraphModel dx="1105" dy="687" grid="1" gridSize="10" guides="1" tooltips="1" connect="1" arrows="1" fold="1" page="1" pageScale="1" pageWidth="1169" pageHeight="827" math="0" shadow="0">
      <root>
        <mxCell id="0" />
        <mxCell id="1" parent="0" />
        <mxCell id="1FJ4IyoQrNntmZyeiZDh-1" value="Доступен" style="rounded=1;whiteSpace=wrap;html=1;arcSize=40;fontColor=#000000;fillColor=#ffffc0;strokeColor=#ff0000;" parent="1" vertex="1">
          <mxGeometry x="480" y="300" width="120" height="40" as="geometry" />
        </mxCell>
        <mxCell id="1FJ4IyoQrNntmZyeiZDh-2" value="" style="edgeStyle=orthogonalEdgeStyle;html=1;verticalAlign=bottom;endArrow=open;endSize=8;strokeColor=#ff0000;rounded=0;" parent="1" source="1FJ4IyoQrNntmZyeiZDh-1" edge="1">
          <mxGeometry relative="1" as="geometry">
            <mxPoint x="540" y="400" as="targetPoint" />
          </mxGeometry>
        </mxCell>
        <mxCell id="1FJ4IyoQrNntmZyeiZDh-18" value="Пользователь бронирует билет" style="edgeLabel;html=1;align=center;verticalAlign=middle;resizable=0;points=[];" parent="1FJ4IyoQrNntmZyeiZDh-2" vertex="1" connectable="0">
          <mxGeometry x="-0.2794" y="-4" relative="1" as="geometry">
            <mxPoint as="offset" />
          </mxGeometry>
        </mxCell>
        <mxCell id="1FJ4IyoQrNntmZyeiZDh-3" value="" style="ellipse;html=1;shape=startState;fillColor=#000000;strokeColor=#ff0000;" parent="1" vertex="1">
          <mxGeometry x="525" y="210" width="30" height="30" as="geometry" />
        </mxCell>
        <mxCell id="1FJ4IyoQrNntmZyeiZDh-4" value="" style="edgeStyle=orthogonalEdgeStyle;html=1;verticalAlign=bottom;endArrow=open;endSize=8;strokeColor=#ff0000;rounded=0;" parent="1" source="1FJ4IyoQrNntmZyeiZDh-3" edge="1">
          <mxGeometry relative="1" as="geometry">
            <mxPoint x="540" y="300" as="targetPoint" />
          </mxGeometry>
        </mxCell>
        <mxCell id="1FJ4IyoQrNntmZyeiZDh-14" value="&lt;pre style=&quot;font-family: var(--ds-font-family-code); overflow: auto; padding: calc(var(--ds-md-zoom)*8px)calc(var(--ds-md-zoom)*12px); text-wrap-mode: wrap; word-break: break-all; color: rgb(255, 255, 255); font-size: 12.573px; text-align: start; margin-top: 0px !important; margin-bottom: 0px !important;&quot;&gt;Пользователь бронирует билет&lt;/pre&gt;" style="edgeLabel;html=1;align=center;verticalAlign=middle;resizable=0;points=[];" parent="1FJ4IyoQrNntmZyeiZDh-4" vertex="1" connectable="0">
          <mxGeometry x="-0.2794" y="1" relative="1" as="geometry">
            <mxPoint x="-181" y="38" as="offset" />
          </mxGeometry>
        </mxCell>
        <mxCell id="1FJ4IyoQrNntmZyeiZDh-22" value="" style="edgeStyle=orthogonalEdgeStyle;rounded=0;orthogonalLoop=1;jettySize=auto;html=1;exitX=1;exitY=0.5;exitDx=0;exitDy=0;" parent="1" source="1FJ4IyoQrNntmZyeiZDh-7" edge="1">
          <mxGeometry relative="1" as="geometry">
            <mxPoint x="740" y="520" as="targetPoint" />
          </mxGeometry>
        </mxCell>
        <mxCell id="1FJ4IyoQrNntmZyeiZDh-5" value="Забронирован" style="rounded=1;whiteSpace=wrap;html=1;arcSize=40;fontColor=#000000;fillColor=#ffffc0;strokeColor=#ff0000;" parent="1" vertex="1">
          <mxGeometry x="480" y="400" width="120" height="40" as="geometry" />
        </mxCell>
        <mxCell id="1FJ4IyoQrNntmZyeiZDh-6" value="" style="edgeStyle=orthogonalEdgeStyle;html=1;verticalAlign=bottom;endArrow=open;endSize=8;strokeColor=#ff0000;rounded=0;" parent="1" source="1FJ4IyoQrNntmZyeiZDh-5" edge="1">
          <mxGeometry relative="1" as="geometry">
            <mxPoint x="540" y="500" as="targetPoint" />
          </mxGeometry>
        </mxCell>
        <mxCell id="1FJ4IyoQrNntmZyeiZDh-17" value="Пользователь оплачивает билет" style="edgeLabel;html=1;align=center;verticalAlign=middle;resizable=0;points=[];" parent="1FJ4IyoQrNntmZyeiZDh-6" vertex="1" connectable="0">
          <mxGeometry x="0.3659" y="-1" relative="1" as="geometry">
            <mxPoint as="offset" />
          </mxGeometry>
        </mxCell>
        <mxCell id="1FJ4IyoQrNntmZyeiZDh-7" value="Оплачен" style="rounded=1;whiteSpace=wrap;html=1;arcSize=40;fontColor=#000000;fillColor=#ffffc0;strokeColor=#ff0000;" parent="1" vertex="1">
          <mxGeometry x="490" y="500" width="120" height="40" as="geometry" />
        </mxCell>
        <mxCell id="1FJ4IyoQrNntmZyeiZDh-8" value="" style="edgeStyle=orthogonalEdgeStyle;html=1;verticalAlign=bottom;endArrow=open;endSize=8;strokeColor=#ff0000;rounded=0;" parent="1" source="1FJ4IyoQrNntmZyeiZDh-7" edge="1">
          <mxGeometry relative="1" as="geometry">
            <mxPoint x="550" y="600" as="targetPoint" />
          </mxGeometry>
        </mxCell>
        <mxCell id="1FJ4IyoQrNntmZyeiZDh-19" value="Пользователь использует билет" style="edgeLabel;html=1;align=center;verticalAlign=middle;resizable=0;points=[];" parent="1FJ4IyoQrNntmZyeiZDh-8" vertex="1" connectable="0">
          <mxGeometry x="0.1136" y="1" relative="1" as="geometry">
            <mxPoint as="offset" />
          </mxGeometry>
        </mxCell>
        <mxCell id="1FJ4IyoQrNntmZyeiZDh-9" value="Использован" style="rounded=1;whiteSpace=wrap;html=1;arcSize=40;fontColor=#000000;fillColor=#ffffc0;strokeColor=#ff0000;" parent="1" vertex="1">
          <mxGeometry x="490" y="600" width="120" height="40" as="geometry" />
        </mxCell>
        <mxCell id="1FJ4IyoQrNntmZyeiZDh-10" value="" style="edgeStyle=orthogonalEdgeStyle;html=1;verticalAlign=bottom;endArrow=open;endSize=8;strokeColor=#ff0000;rounded=0;" parent="1" source="1FJ4IyoQrNntmZyeiZDh-9" edge="1">
          <mxGeometry relative="1" as="geometry">
            <mxPoint x="550" y="700" as="targetPoint" />
          </mxGeometry>
        </mxCell>
        <mxCell id="1FJ4IyoQrNntmZyeiZDh-20" value="Пользователь отменяет билет" style="edgeLabel;html=1;align=center;verticalAlign=middle;resizable=0;points=[];" parent="1FJ4IyoQrNntmZyeiZDh-10" vertex="1" connectable="0">
          <mxGeometry x="0.0827" y="-3" relative="1" as="geometry">
            <mxPoint as="offset" />
          </mxGeometry>
        </mxCell>
        <mxCell id="1FJ4IyoQrNntmZyeiZDh-11" value="Отменен" style="rounded=1;whiteSpace=wrap;html=1;arcSize=40;fontColor=#000000;fillColor=#ffffc0;strokeColor=#ff0000;" parent="1" vertex="1">
          <mxGeometry x="490" y="700" width="120" height="40" as="geometry" />
        </mxCell>
        <mxCell id="1FJ4IyoQrNntmZyeiZDh-12" value="" style="edgeStyle=orthogonalEdgeStyle;html=1;verticalAlign=bottom;endArrow=open;endSize=8;strokeColor=#ff0000;rounded=0;" parent="1" source="1FJ4IyoQrNntmZyeiZDh-11" edge="1">
          <mxGeometry relative="1" as="geometry">
            <mxPoint x="550" y="800" as="targetPoint" />
          </mxGeometry>
        </mxCell>
        <mxCell id="1FJ4IyoQrNntmZyeiZDh-13" value="" style="ellipse;html=1;shape=endState;fillColor=#000000;strokeColor=#ff0000;" parent="1" vertex="1">
          <mxGeometry x="535" y="797" width="30" height="30" as="geometry" />
        </mxCell>
        <mxCell id="1FJ4IyoQrNntmZyeiZDh-24" value="" style="edgeStyle=orthogonalEdgeStyle;rounded=0;orthogonalLoop=1;jettySize=auto;html=1;" parent="1" target="1FJ4IyoQrNntmZyeiZDh-23" edge="1">
          <mxGeometry relative="1" as="geometry">
            <mxPoint x="740" y="520" as="sourcePoint" />
          </mxGeometry>
        </mxCell>
        <mxCell id="1FJ4IyoQrNntmZyeiZDh-29" value="Пользователь отменяет билет" style="edgeLabel;html=1;align=center;verticalAlign=middle;resizable=0;points=[];" parent="1FJ4IyoQrNntmZyeiZDh-24" vertex="1" connectable="0">
          <mxGeometry x="0.1227" y="-3" relative="1" as="geometry">
            <mxPoint as="offset" />
          </mxGeometry>
        </mxCell>
        <mxCell id="1FJ4IyoQrNntmZyeiZDh-21" value="" style="shape=waypoint;sketch=0;size=6;pointerEvents=1;points=[];fillColor=#ffffc0;resizable=0;rotatable=0;perimeter=centerPerimeter;snapToPoint=1;strokeColor=#ff0000;fontColor=#000000;rounded=1;arcSize=40;" parent="1" vertex="1">
          <mxGeometry x="730" y="410" width="20" height="20" as="geometry" />
        </mxCell>
        <mxCell id="1FJ4IyoQrNntmZyeiZDh-25" style="edgeStyle=orthogonalEdgeStyle;rounded=0;orthogonalLoop=1;jettySize=auto;html=1;" parent="1" source="1FJ4IyoQrNntmZyeiZDh-23" edge="1">
          <mxGeometry relative="1" as="geometry">
            <mxPoint x="740" y="720" as="targetPoint" />
          </mxGeometry>
        </mxCell>
        <mxCell id="1FJ4IyoQrNntmZyeiZDh-27" value="" style="edgeStyle=orthogonalEdgeStyle;rounded=0;orthogonalLoop=1;jettySize=auto;html=1;" parent="1" source="1FJ4IyoQrNntmZyeiZDh-23" target="1FJ4IyoQrNntmZyeiZDh-26" edge="1">
          <mxGeometry relative="1" as="geometry" />
        </mxCell>
        <mxCell id="1FJ4IyoQrNntmZyeiZDh-23" value="" style="shape=waypoint;sketch=0;size=6;pointerEvents=1;points=[];fillColor=#ffffc0;resizable=0;rotatable=0;perimeter=centerPerimeter;snapToPoint=1;strokeColor=#ff0000;fontColor=#000000;rounded=1;arcSize=40;" parent="1" vertex="1">
          <mxGeometry x="730" y="710" width="20" height="20" as="geometry" />
        </mxCell>
        <mxCell id="1FJ4IyoQrNntmZyeiZDh-28" style="edgeStyle=orthogonalEdgeStyle;rounded=0;orthogonalLoop=1;jettySize=auto;html=1;" parent="1" source="1FJ4IyoQrNntmZyeiZDh-26" target="1FJ4IyoQrNntmZyeiZDh-11" edge="1">
          <mxGeometry relative="1" as="geometry" />
        </mxCell>
        <mxCell id="1FJ4IyoQrNntmZyeiZDh-26" value="" style="shape=waypoint;sketch=0;size=6;pointerEvents=1;points=[];fillColor=#ffffc0;resizable=0;rotatable=0;perimeter=centerPerimeter;snapToPoint=1;strokeColor=#ff0000;fontColor=#000000;rounded=1;arcSize=40;" parent="1" vertex="1">
          <mxGeometry x="630" y="710" width="20" height="20" as="geometry" />
        </mxCell>
      </root>
    </mxGraphModel>
  </diagram>
</mxfile>
